<svg width="7" height="11" viewBox="0 0 7 11" fill="none" xmlns="http://www.w3.org/2000/svg">
<path d="M5.0803 2.0318H6.20908C6.3337 2.0318 6.43484 1.93066 6.43484 1.80605V0.28513C6.43484 0.166834 6.34386 0.068404 6.22601 0.0600511C5.86684 0.0345407 5.16519 0 4.66062 0C3.27426 0 2.37123 0.830782 2.37123 2.34064V3.83785H0.790941C0.666324 3.83785 0.565186 3.93899 0.565186 4.06361V5.6439C0.565186 5.76851 0.666324 5.86965 0.790941 5.86965H2.37123V10.159C2.37123 10.2836 2.47237 10.3848 2.59699 10.3848H4.17728C4.3019 10.3848 4.40304 10.2836 4.40304 10.159V5.86965H6.03344C6.14858 5.86965 6.2452 5.78319 6.25785 5.66873L6.43348 4.08844C6.44838 3.95479 6.34363 3.83785 6.20908 3.83785H4.40304V2.70907C4.40304 2.33499 4.70623 2.0318 5.0803 2.0318Z" fill="white"/>
</svg>
