<svg width="9" height="9" viewBox="0 0 9 9" fill="none" xmlns="http://www.w3.org/2000/svg">
<path d="M6.90174 1.55829C6.18175 1.58036 6.18194 2.61621 6.90174 2.63809C7.62174 2.61602 7.62155 1.58017 6.90174 1.55829Z" fill="white"/>
<path d="M4.49997 2.18341C3.22388 2.18341 2.18945 3.22058 2.18945 4.5C2.31119 7.57295 6.68914 7.5721 6.8104 4.5C6.8105 3.22058 5.77598 2.18341 4.49997 2.18341ZM4.49997 6.00374C3.6717 6.00374 3.00021 5.33045 3.00021 4.5C3.07922 2.50532 5.92111 2.5058 5.99984 4.5C5.99974 5.33055 5.32825 6.00374 4.49997 6.00374Z" fill="white"/>
<path d="M8.97232 2.64486C8.93898 1.06589 7.9344 0.0607383 6.35505 0.0276754C5.97582 -0.0088928 3.02441 -0.00955596 2.64489 0.0276754C1.06593 0.0610225 0.060774 1.06561 0.0277111 2.64495C-0.00885711 3.02361 -0.009615 5.97597 0.0277111 6.35511C0.057174 7.92896 1.07085 8.94292 2.64489 8.97229C3.02412 9.00924 5.97553 9.00924 6.35505 8.97229C6.83394 8.95041 7.16106 8.87433 7.44726 8.76311C8.45023 8.36247 8.9403 7.47129 8.97232 6.35501C9.00889 5.97578 9.00956 3.02437 8.97232 2.64486ZM6.3181 8.16239C5.94493 8.19801 3.05529 8.19858 2.68184 8.16239C2.24321 8.1424 2.00495 8.06907 1.84636 8.0075C0.477519 7.37257 0.901937 6.08861 0.837421 4.32624C0.838842 3.91688 0.836569 3.09126 0.837516 2.6819C0.892179 1.46151 1.46694 0.896501 2.68184 0.837575C3.05548 0.801954 5.94437 0.801386 6.3181 0.837575C7.53887 0.892238 8.10331 1.467 8.16242 2.68181C8.18658 2.9735 8.20411 4.56582 8.16242 5.37165C8.20742 6.88516 8.13846 8.07362 6.3181 8.16239Z" fill="white"/>
</svg>
