<svg width="10" height="10" viewBox="0 0 10 10" fill="none" xmlns="http://www.w3.org/2000/svg">
<path d="M1.20724 0C1.86239 0 2.41409 0.561398 2.41409 1.22807C2.41409 1.92981 1.8279 2.47368 1.20724 2.45613C0.569337 2.47368 0.000393611 1.92981 0.000393611 1.22807C-0.0168518 0.543849 0.534866 0 1.20724 0Z" fill="white"/>
<path d="M1.87972 9.99998H0.500451C0.31081 9.99998 0.15564 9.84208 0.15564 9.6491V3.50877C0.15564 3.3158 0.293564 3.1579 0.483206 3.1579H1.8797C2.06934 3.1579 2.22451 3.3158 2.22451 3.50877V9.66665C2.22453 9.84208 2.06936 9.99998 1.87972 9.99998Z" fill="white"/>
<path d="M9.98279 5.29827C9.98279 4.00003 9.03454 2.98248 7.75873 2.98248H7.39667C6.70705 2.98248 6.03465 3.31581 5.6726 3.85968C5.55192 3.98248 5.50018 4.03512 5.50018 4.03512V3.33338C5.50018 3.2632 5.39673 3.15793 5.32777 3.15793H3.60369C3.53473 3.15793 3.43127 3.2281 3.43127 3.31583V9.85968C3.43127 9.92985 3.53473 10 3.60369 10H5.50016C5.56912 10 5.67258 9.92985 5.67258 9.85968V6.07019C5.67258 5.42107 6.15531 4.8772 6.79322 4.85967C7.12079 4.85967 7.41388 4.98247 7.63801 5.21054C7.8449 5.42107 7.93111 5.71932 7.93111 6.05264V9.82456C7.93111 9.89474 8.03456 10 8.10352 10H9.8276C9.89656 10 10 9.89474 10 9.82456V5.29827H9.98279Z" fill="white"/>
</svg>
