<svg width="11" height="9" viewBox="0 0 11 9" fill="none" xmlns="http://www.w3.org/2000/svg">
<path d="M10.2818 0.989151C9.90342 1.15726 9.49687 1.27034 9.07016 1.32139C9.50595 1.06036 9.84007 0.647165 9.99744 0.154452C9.59011 0.396102 9.1386 0.571635 8.65763 0.666545C8.27289 0.25645 7.72481 0.000182204 7.11814 0.000182204C5.77721 -0.0177588 4.74627 1.29226 5.06356 2.59C3.31055 2.50217 1.75644 1.66227 0.715646 0.385692C0.147625 1.31198 0.47012 2.63662 1.36861 3.20209C1.02297 3.19102 0.697483 3.09611 0.413196 2.93829C0.400017 3.96879 1.13106 4.83882 2.1053 5.03296C1.80595 5.11646 1.46108 5.12953 1.15265 5.06928C1.42121 5.90719 2.20021 6.51741 3.12317 6.53435C2.28869 7.20116 1.12042 7.54879 0 7.40792C4.5054 10.1807 9.48601 6.54797 9.22886 2.08089C9.64117 1.7832 9.9991 1.41187 10.2818 0.989151Z" fill="white"/>
</svg>
